<?xml version="1.0" encoding="utf-8"?>
<!-- Generator: Adobe Illustrator 23.0.5, SVG Export Plug-In . SVG Version: 6.00 Build 0)  -->
<svg version="1.1" id="Layer_1" xmlns="http://www.w3.org/2000/svg" xmlns:xlink="http://www.w3.org/1999/xlink" x="0px" y="0px"
	 viewBox="0 0 40 40" style="enable-background:new 0 0 40 40;" xml:space="preserve">
<style type="text/css">
	.st0{fill-rule:evenodd;clip-rule:evenodd;fill:#FFFFFF;}
	.st1{display:none;fill-rule:evenodd;clip-rule:evenodd;fill:#FCFCFC;}
	.st2{display:none;}
	.st3{fill-rule:evenodd;clip-rule:evenodd;fill:none;}
</style>
<path class="st0" d="M20,0C9,0,0,9,0,20s9,20,20,20s20-9,20-20S31,0,20,0z M28.5,28.2c-0.4,0.4-0.8,0.8-1.3,1.1c-1,0.7-2.3,1-3.8,1
	c-1.4,0-2.6-0.5-3.7-1.1c-2-1.1-3.7-2.6-5.2-4.3c-1.5-1.7-2.9-3.7-3.6-5.9c-1-2.8-0.5-5.6,1.1-7.4c0.3-0.3,0.7-0.6,1-0.9
	c0.4-0.3,0.7-0.7,1.3-0.8c1.2-0.2,2,1.1,2.6,2.1c0.6,0.9,1.3,2,1,3.2c-0.2,0.7-0.8,1-1.2,1.4c-0.5,0.4-1.1,0.7-1.3,1.3
	c-0.3,1,0.3,2,0.7,2.6c0.8,1.3,1.8,2.5,3.1,3.5c0.6,0.5,1.5,1.2,2.4,1c1.3-0.3,1.6-1.9,3-2.1c1.3-0.2,2.3,0.8,3,1.4
	c0.7,0.6,1.9,1.4,1.8,2.5C29.5,27.4,29,27.8,28.5,28.2z"/>
<path class="st1" d="M29.5,26.8c0,0.6-0.5,1-1,1.4c-0.4,0.4-0.8,0.8-1.3,1.1c-1,0.7-2.3,1-3.8,1c-1.4,0-2.6-0.5-3.7-1.1
	c-2-1.1-3.7-2.6-5.2-4.3c-1.5-1.7-2.9-3.7-3.6-5.9c-1-2.8-0.5-5.6,1.1-7.4c0.3-0.3,0.7-0.6,1-0.9c0.4-0.3,0.7-0.7,1.3-0.8
	c1.2-0.2,2,1.1,2.6,2.1c0.6,0.9,1.3,2,1,3.2c-0.2,0.7-0.8,1-1.2,1.4c-0.5,0.4-1.1,0.7-1.3,1.3c-0.3,1,0.3,2,0.7,2.6
	c0.8,1.3,1.8,2.5,3.1,3.5c0.6,0.5,1.5,1.2,2.4,1c1.3-0.3,1.6-1.9,3-2.1c1.3-0.2,2.3,0.8,3,1.4C28.4,24.9,29.6,25.7,29.5,26.8z"/>
<g class="st2">
	<path class="st3" d="M29.5,26.8c0,0.6-0.5,1-1,1.4c-0.4,0.4-0.8,0.8-1.3,1.1c-1,0.7-2.3,1-3.8,1c-1.4,0-2.6-0.5-3.7-1.1
		c-2-1.1-3.7-2.6-5.2-4.3c-1.5-1.7-2.9-3.7-3.6-5.9c-1-2.8-0.5-5.6,1.1-7.4c0.3-0.3,0.7-0.6,1-0.9c0.4-0.3,0.7-0.7,1.3-0.8
		c1.2-0.2,2,1.1,2.6,2.1c0.6,0.9,1.3,2,1,3.2c-0.2,0.7-0.8,1-1.2,1.4c-0.5,0.4-1.1,0.7-1.3,1.3c-0.3,1,0.3,2,0.7,2.6
		c0.8,1.3,1.8,2.5,3.1,3.5c0.6,0.5,1.5,1.2,2.4,1c1.3-0.3,1.6-1.9,3-2.1c1.3-0.2,2.3,0.8,3,1.4C28.4,24.9,29.6,25.7,29.5,26.8z"/>
</g>
</svg>
